<svg width="29" height="29" viewBox="0 0 29 29" fill="none" xmlns="http://www.w3.org/2000/svg">
<path d="M20.0378 15.2049C19.9815 15.2895 19.9815 15.374 19.9533 15.4868C19.9251 15.8532 20.2069 16.1914 20.5733 16.2195C20.9397 16.2477 21.2779 15.9659 21.3061 15.5995C21.3061 15.515 21.3061 15.4304 21.3343 15.2895C21.3343 15.1486 21.3343 15.064 21.3343 14.9795C21.3343 14.1622 21.1933 13.373 20.9397 12.6121C20.6015 11.6257 20.0097 10.752 19.3051 10.0193C18.4314 9.14559 17.3604 8.52556 16.1486 8.18737C15.5849 8.04645 14.9649 7.9619 14.373 7.9619C14.1758 7.9619 13.9785 7.9619 13.753 7.99009C13.5557 8.01827 13.3585 8.04645 13.1612 8.07463C12.7948 8.131 12.5411 8.49738 12.6257 8.83558C12.6821 9.20196 13.0484 9.4556 13.3866 9.37105C13.5557 9.34287 13.6967 9.31469 13.8658 9.31469C13.8939 9.31469 13.9221 9.31469 13.9503 9.31469C14.0912 9.31469 14.2321 9.2865 14.373 9.2865C15.9231 9.2865 17.3604 9.90653 18.375 10.9493C19.3896 11.9639 20.0097 13.3449 20.0378 14.8949V14.9513C20.0378 15.064 20.0378 15.1486 20.0378 15.2049Z" fill="white"/>
<path d="M23.7583 15.825C23.7301 16.1913 24.0119 16.5295 24.3783 16.5577C24.7447 16.5859 25.0829 16.3041 25.111 15.9377C25.1392 15.6277 25.1392 15.3177 25.1392 15.0077C25.1392 14.3876 25.0829 13.7958 24.9983 13.2039C24.6319 10.9493 23.5328 8.92012 21.9827 7.37006C20.2072 5.59452 17.8398 4.43902 15.2188 4.24174C14.937 4.21355 14.627 4.21355 14.3451 4.21355C14.0351 4.21355 13.7251 4.21355 13.4151 4.24174C13.1051 4.26992 12.7951 4.2981 12.485 4.35447C12.1187 4.41084 11.865 4.77722 11.9496 5.11541C12.0059 5.48179 12.3723 5.73544 12.7105 5.65089C12.9078 5.62271 13.0769 5.59452 13.2742 5.56634C13.3587 5.56634 13.4433 5.53816 13.5278 5.53816C13.8096 5.50997 14.0915 5.50997 14.3451 5.50997C15.3033 5.50997 16.2052 5.65089 17.0789 5.90454C18.6008 6.35547 19.9536 7.17277 21.0527 8.27191C21.9546 9.17377 22.6873 10.2729 23.1664 11.4566C23.5892 12.5276 23.8428 13.7112 23.8428 14.9513C23.8428 15.0358 23.8428 15.1486 23.8428 15.2331C23.7864 15.4586 23.7583 15.6277 23.7583 15.825Z" fill="white"/>
<path d="M24.7164 4.66448C22.039 1.98709 18.3752 0.352478 14.3169 0.352478C13.8941 0.352478 13.4714 0.380661 13.0486 0.408844C12.6259 0.437027 12.2032 0.493393 11.7804 0.577942C11.414 0.634308 11.1604 1.00069 11.2449 1.33888C11.3013 1.70526 11.6677 1.95891 12.0059 1.87436C12.2032 1.84618 12.3723 1.818 12.5695 1.78981C12.7668 1.76163 12.9641 1.73345 13.1614 1.73345C13.5559 1.70526 13.9223 1.67708 14.3169 1.67708C17.9807 1.67708 21.3063 3.17078 23.73 5.56634C26.1256 7.9619 27.6193 11.2875 27.6193 14.9795C27.6193 15.1768 27.6193 15.4022 27.6193 15.5995C27.6193 15.7686 27.5911 15.9377 27.5911 16.135C27.5629 16.5014 27.8447 16.8396 28.2111 16.8677C28.5775 16.8959 28.9157 16.6141 28.9439 16.2477C28.9721 15.825 29.0003 15.4022 29.0003 15.0077C29.0003 10.9775 27.3656 7.31369 24.7164 4.66448Z" fill="white"/>
<path d="M27.9572 21.7434L22.9688 19.066C21.306 18.1642 21.2497 18.756 19.5023 20.6161C19.0796 21.067 18.2905 22.2507 17.3604 22.0252C15.4158 21.5461 11.7802 18.6996 10.5965 17.4032C10.0328 16.7832 7.60909 13.824 7.5809 12.8658C7.52454 11.4002 10.7374 10.6675 9.69463 7.87735L7.46817 2.88895C5.38263 -1.90216 -0.451264 5.76362 0.0278472 9.34287C1.2679 18.1642 16.7404 32.4248 25.3644 27.7182C27.2808 26.6473 29.8737 22.8989 27.9572 21.7434Z" fill="white"/>
</svg>
