<svg width="65" height="69" viewBox="0 0 65 69" fill="none" xmlns="http://www.w3.org/2000/svg">
<path d="M29.9919 14.9627C34.1269 14.9627 37.479 11.6132 37.479 7.48135C37.479 3.34951 34.1269 0 29.9919 0C25.8569 0 22.5048 3.34951 22.5048 7.48135C22.5048 11.6132 25.8569 14.9627 29.9919 14.9627Z" fill="#3BDE7C"/>
<path d="M44.657 18.2974C48.4177 18.2974 51.4664 15.2511 51.4664 11.4933C51.4664 7.73553 48.4177 4.68922 44.657 4.68922C40.8963 4.68922 37.8476 7.73553 37.8476 11.4933C37.8476 15.2511 40.8963 18.2974 44.657 18.2974Z" fill="#3BDE7C"/>
<path d="M55.2324 28.5432C58.6166 28.5432 61.3601 25.8019 61.3601 22.4203C61.3601 19.0387 58.6166 16.2974 55.2324 16.2974C51.8482 16.2974 49.1048 19.0387 49.1048 22.4203C49.1048 25.8019 51.8482 28.5432 55.2324 28.5432Z" fill="#3BDE7C"/>
<path d="M64.127 38.084C64.6089 35.1174 62.5928 32.3222 59.624 31.8407C56.6552 31.3591 53.8578 33.3736 53.3759 36.3402C52.894 39.3067 54.91 42.1019 57.8789 42.5834C60.8477 43.065 63.6451 41.0505 64.127 38.084Z" fill="#3BDE7C"/>
<path d="M54.2372 56.4805C56.8684 56.4805 59.0014 54.3491 59.0014 51.72C59.0014 49.0908 56.8684 46.9595 54.2372 46.9595C51.606 46.9595 49.473 49.0908 49.473 51.72C49.473 54.3491 51.606 56.4805 54.2372 56.4805Z" fill="#3BDE7C"/>
<path d="M42.9487 65.9935C45.2056 65.9935 47.0351 64.1654 47.0351 61.9103C47.0351 59.6552 45.2056 57.827 42.9487 57.827C40.6919 57.827 38.8623 59.6552 38.8623 61.9103C38.8623 64.1654 40.6919 65.9935 42.9487 65.9935Z" fill="#3BDE7C"/>
<path d="M28.042 68.3223C29.9223 68.3223 31.4467 66.7991 31.4467 64.9202C31.4467 63.0413 29.9223 61.5182 28.042 61.5182C26.1616 61.5182 24.6373 63.0413 24.6373 64.9202C24.6373 66.7991 26.1616 68.3223 28.042 68.3223Z" fill="#3BDE7C"/>
<path d="M13.6785 62.643C15.1824 62.643 16.4015 61.4248 16.4015 59.9221C16.4015 58.4194 15.1824 57.2013 13.6785 57.2013C12.1747 57.2013 10.9556 58.4194 10.9556 59.9221C10.9556 61.4248 12.1747 62.643 13.6785 62.643Z" fill="#3BDE7C"/>
<path d="M3.86874 50.3457C4.99608 50.3457 5.90997 49.4325 5.90997 48.306C5.90997 47.1796 4.99608 46.2664 3.86874 46.2664C2.74141 46.2664 1.82752 47.1796 1.82752 48.306C1.82752 49.4325 2.74141 50.3457 3.86874 50.3457Z" fill="#3BDE7C"/>
<path d="M1.36346 34.678C2.11647 34.678 2.72692 34.068 2.72692 33.3156C2.72692 32.5631 2.11647 31.9532 1.36346 31.9532C0.610439 31.9532 0 32.5631 0 33.3156C0 34.068 0.610439 34.678 1.36346 34.678Z" fill="#3BDE7C"/>
<path d="M6.85332 19.8222C6.71816 19.8238 6.58558 19.7852 6.47243 19.7113C6.35929 19.6374 6.27067 19.5316 6.21786 19.4072C6.16504 19.2829 6.1504 19.1457 6.17581 19.013C6.20121 18.8804 6.2655 18.7583 6.36052 18.6622C6.45554 18.5661 6.57699 18.5005 6.70945 18.4735C6.8419 18.4466 6.97938 18.4596 7.10441 18.5109C7.22944 18.5623 7.33639 18.6496 7.41165 18.7617C7.48692 18.8739 7.52711 19.0059 7.52712 19.141C7.52713 19.3203 7.4564 19.4924 7.33026 19.6199C7.20412 19.7474 7.03275 19.8201 6.85332 19.8222Z" fill="#3BDE7C"/>
</svg>
